<?xml version="1.0" standalone="no"?><!-- Generator: Gravit.io --><svg xmlns="http://www.w3.org/2000/svg" xmlns:xlink="http://www.w3.org/1999/xlink" style="isolation:isolate" viewBox="0 0 200 200" width="200" height="200"><defs><clipPath id="_clipPath_mvZzf1TmrpqL2xZ1m8AZvIbnnct6tpE5"><rect width="200" height="200"/></clipPath></defs><g clip-path="url(#_clipPath_mvZzf1TmrpqL2xZ1m8AZvIbnnct6tpE5)"><clipPath id="_clipPath_i6WeagGrcUn23BWFh1TIRovaPcTTl0Ot"><rect x="88.902" y="16.234" width="158.227" height="154.212" transform="matrix(0.968,0.251,-0.251,0.968,28.811,-39.188)" fill="rgb(255,255,255)"/></clipPath><g clip-path="url(#_clipPath_i6WeagGrcUn23BWFh1TIRovaPcTTl0Ot)"><g id="Group"><rect x="171.696" y="33.127" width="24" height="24" transform="matrix(0.968,0.251,-0.251,0.968,17.21,-44.669)" fill="rgb(93,93,93)"/><rect x="148.465" y="27.102" width="24" height="24" transform="matrix(0.968,0.251,-0.251,0.968,14.954,-39.03)" fill="rgb(93,93,93)"/><rect x="194.928" y="39.151" width="24" height="24" transform="matrix(0.968,0.251,-0.251,0.968,19.467,-50.308)" fill="rgb(93,93,93)"/><rect x="165.672" y="56.358" width="24" height="24" transform="matrix(0.968,0.251,-0.251,0.968,22.849,-42.412)" fill="rgb(93,93,93)"/><rect x="119.209" y="44.309" width="24" height="24" transform="matrix(0.968,0.251,-0.251,0.968,18.337,-31.135)" fill="rgb(93,93,93)"/><rect x="113.184" y="67.54" width="24" height="24" transform="matrix(0.968,0.251,-0.251,0.968,23.976,-28.878)" fill="rgb(93,93,93)"/><rect x="136.415" y="73.565" width="24" height="24" transform="matrix(0.968,0.251,-0.251,0.968,26.232,-34.517)" fill="rgb(93,93,93)"/><rect x="159.647" y="79.59" width="24" height="24" transform="matrix(0.968,0.251,-0.251,0.968,28.488,-40.156)" fill="rgb(93,93,93)"/><rect x="182.878" y="85.614" width="24" height="24" transform="matrix(0.968,0.251,-0.251,0.968,30.745,-45.795)" fill="rgb(93,93,93)"/><rect x="206.11" y="91.639" width="24" height="24" transform="matrix(0.968,0.251,-0.251,0.968,33.001,-51.434)" fill="rgb(93,93,93)"/><rect x="212.135" y="68.408" width="24" height="24" transform="matrix(0.968,0.251,-0.251,0.968,27.362,-53.69)" fill="rgb(93,93,93)"/><rect x="107.159" y="90.772" width="24" height="24" transform="matrix(0.968,0.251,-0.251,0.968,29.615,-26.622)" fill="rgb(93,93,93)"/><rect x="130.391" y="96.796" width="24" height="24" transform="matrix(0.968,0.251,-0.251,0.968,31.871,-32.261)" fill="rgb(93,93,93)"/><rect x="153.622" y="102.821" width="24" height="24" transform="matrix(0.968,0.251,-0.251,0.968,34.127,-37.9)" fill="rgb(93,93,93)"/><rect x="176.854" y="108.846" width="24" height="24" transform="matrix(0.968,0.251,-0.251,0.968,36.384,-43.539)" fill="rgb(93,93,93)"/><rect x="200.085" y="114.871" width="24" height="24" transform="matrix(0.968,0.251,-0.251,0.968,38.64,-49.178)" fill="rgb(93,93,93)"/><rect x="101.134" y="114.003" width="24" height="24" transform="matrix(0.968,0.251,-0.251,0.968,35.254,-24.366)" fill="rgb(93,93,93)"/><rect x="147.597" y="126.053" width="24" height="24" transform="matrix(0.968,0.251,-0.251,0.968,39.766,-35.643)" fill="rgb(93,93,93)"/><rect x="194.06" y="138.102" width="24" height="24" transform="matrix(0.968,0.251,-0.251,0.968,44.279,-46.921)" fill="rgb(93,93,93)"/></g></g></g></svg>