<?xml version="1.0" standalone="no"?><!-- Generator: Gravit.io --><svg xmlns="http://www.w3.org/2000/svg" xmlns:xlink="http://www.w3.org/1999/xlink" style="isolation:isolate" viewBox="0 0 200 200" width="200" height="200"><defs><clipPath id="_clipPath_XWWnBfVDBzXTLMpfpkuox9EomxgVrhuu"><rect width="200" height="200"/></clipPath></defs><g clip-path="url(#_clipPath_XWWnBfVDBzXTLMpfpkuox9EomxgVrhuu)"><clipPath id="_clipPath_PV7zNemROVB4hYVFBibznZAnw3RR0CmD"><rect x="-8.904" y="72.633" width="158.227" height="154.212" transform="matrix(0.971,-0.238,0.238,0.971,-33.663,21.047)" fill="rgb(255,255,255)"/></clipPath><g clip-path="url(#_clipPath_PV7zNemROVB4hYVFBibznZAnw3RR0CmD)"><g id="Group"><rect x="49.137" y="87.858" width="24" height="24" transform="matrix(0.971,-0.238,0.238,0.971,-22.036,17.447)" fill="rgb(93,93,93)"/><rect x="25.828" y="93.577" width="24" height="24" transform="matrix(0.971,-0.238,0.238,0.971,-24.071,12.057)" fill="rgb(93,93,93)"/><rect x="72.445" y="82.138" width="24" height="24" transform="matrix(0.971,-0.238,0.238,0.971,-20.002,22.837)" fill="rgb(93,93,93)"/><rect x="54.856" y="111.166" width="24" height="24" transform="matrix(0.971,-0.238,0.238,0.971,-27.427,19.482)" fill="rgb(93,93,93)"/><rect x="8.239" y="122.606" width="24" height="24" transform="matrix(0.971,-0.238,0.238,0.971,-31.496,8.702)" fill="rgb(93,93,93)"/><rect x="13.959" y="145.914" width="24" height="24" transform="matrix(0.971,-0.238,0.238,0.971,-36.886,10.736)" fill="rgb(93,93,93)"/><rect x="37.267" y="140.194" width="24" height="24" transform="matrix(0.971,-0.238,0.238,0.971,-34.851,16.127)" fill="rgb(93,93,93)"/><rect x="60.576" y="134.475" width="24" height="24" transform="matrix(0.971,-0.238,0.238,0.971,-32.817,21.517)" fill="rgb(93,93,93)"/><rect x="83.884" y="128.755" width="24" height="24" transform="matrix(0.971,-0.238,0.238,0.971,-30.782,26.907)" fill="rgb(93,93,93)"/><rect x="107.193" y="123.035" width="24" height="24" transform="matrix(0.971,-0.238,0.238,0.971,-28.747,32.297)" fill="rgb(93,93,93)"/><rect x="101.473" y="99.727" width="24" height="24" transform="matrix(0.971,-0.238,0.238,0.971,-23.357,30.262)" fill="rgb(93,93,93)"/><rect x="19.679" y="169.222" width="24" height="24" transform="matrix(0.971,-0.238,0.238,0.971,-42.276,12.771)" fill="rgb(93,93,93)"/><rect x="42.987" y="163.503" width="24" height="24" transform="matrix(0.971,-0.238,0.238,0.971,-40.241,18.161)" fill="rgb(93,93,93)"/><rect x="66.296" y="157.783" width="24" height="24" transform="matrix(0.971,-0.238,0.238,0.971,-38.207,23.551)" fill="rgb(93,93,93)"/><rect x="89.604" y="152.064" width="24" height="24" transform="matrix(0.971,-0.238,0.238,0.971,-36.172,28.941)" fill="rgb(93,93,93)"/><rect x="112.912" y="146.344" width="24" height="24" transform="matrix(0.971,-0.238,0.238,0.971,-34.137,34.331)" fill="rgb(93,93,93)"/><rect x="25.398" y="192.531" width="24" height="24" transform="matrix(0.971,-0.238,0.238,0.971,-47.666,14.806)" fill="rgb(93,93,93)"/><rect x="72.015" y="181.092" width="24" height="24" transform="matrix(0.971,-0.238,0.238,0.971,-43.597,25.586)" fill="rgb(93,93,93)"/><rect x="118.632" y="169.652" width="24" height="24" transform="matrix(0.971,-0.238,0.238,0.971,-39.527,36.366)" fill="rgb(93,93,93)"/></g></g></g></svg>